inDegrees=yes
name=ik_MT_012005D6_009-001_orientations
DataType=double
version=3
OpenSimVersion=4.1
endheader
time	pelvis_tilt	pelvis_list	pelvis_rotation	pelvis_tx	pelvis_ty	pelvis_tz	hip_flexion_r	hip_adduction_r	hip_rotation_r	knee_angle_r	knee_angle_r_beta	ankle_angle_r	subtalar_angle_r	mtp_angle_r	hip_flexion_l	hip_adduction_l	hip_rotation_l	knee_angle_l	knee_angle_l_beta	ankle_angle_l	subtalar_angle_l	mtp_angle_l	lumbar_extension	lumbar_bending	lumbar_rotation	arm_flex_r	arm_add_r	arm_rot_r	elbow_flex_r	pro_sup_r	wrist_flex_r	wrist_dev_r	arm_flex_l	arm_add_l	arm_rot_l	elbow_flex_l	pro_sup_l	wrist_flex_l	wrist_dev_l
6.079999999999915	-5.739695104082786	3.238032465868464	-46.45371076975022	0	0.9399999999999999	0	25.76850594042484	-6.747608392900143	-22.4714169546043	0.8783592491557303	0.01533026091311272	2.156019928396344	0	0	5.842218383223711	0.3004470125984369	-27.47022087078052	0.04634751416268022	0.0008089167222534727	8.40488673089243	0	0	0	0	0	0	-14.99999387805273	0	75.00017584612534	45.00000025534056	0	0	0	-14.99999387805273	0	75.00017584612534	45.00000025534056	0	0
6.089999999999915	-5.682169734122837	3.372970457048333	-46.58420937536049	0	0.9399999999999999	0	25.65617617243727	-6.860436541925455	-23.2774279405742	0.5801339704441657	0.01012524788691816	2.3710630819539	0	0	5.72407705011232	0.3479800899577307	-27.62087756764582	0.04676706200555858	0.0008162392134813399	8.405873539521762	0	0	0	0	0	0	-14.99999388015232	0	75.00017584612536	45.00000025534056	0	0	0	-14.99999388015232	0	75.00017584612536	45.00000025534056	0	0
6.099999999999914	-5.620241411047016	3.504702386254707	-46.69586225752148	0	0.9399999999999999	0	25.56609011483464	-7.016376242321839	-24.0600320375814	0.3912252068342765	0.006828167976053946	2.643162635121715	0	0	5.603195758328923	0.3963257433951925	-27.74863105283312	0.04707709687386247	0.0008216503427292298	8.421931142377078	0	0	0	0	0	0	-14.99999388214126	0	75.00017584612537	45.00000025534056	0	0	0	-14.99999388214126	0	75.00017584612537	45.00000025534056	0	0
6.109999999999914	-5.541354655063036	3.627369478388003	-46.76576718258254	0	0.9399999999999999	0	25.46968419590806	-7.209577282189159	-24.84792189693468	0.2879803138839456	0.00502620465820159	2.942604714133565	0	0	5.451523274091653	0.4412394660196854	-27.85485294301515	0.04761096244505765	0.0008309680547096258	8.441746276776982	0	0	0	0	0	0	-14.99999388455638	0	75.00017584612539	45.00000025534056	0	0	0	-14.99999388455638	0	75.00017584612539	45.00000025534056	0	0
6.119999999999914	-5.454808240488797	3.770181061607228	-46.80477401225293	0	0.9399999999999999	0	25.38259950355278	-7.409983286548761	-25.61654870708591	0.2272514643489187	0.003966286282867144	3.240718348228679	0	0	5.305456518103248	0.5097161003668943	-27.9411864362832	0.04841822385047225	0.0008450574241583874	8.456635123587365	0	0	0	0	0	0	-14.99999388674785	0	75.0001758461254	45.00000025534056	0	0	0	-14.99999388674785	0	75.0001758461254	45.00000025534056	0	0
6.129999999999914	-5.368237632180669	3.908389235259154	-46.81501403199309	0	0.9399999999999999	0	25.26218400062858	-7.620244645570769	-26.36320255570421	0.1884127962305323	0.003288423647111949	3.499402287669426	0	0	5.162713589083387	0.5774290339709152	-28.0012645831047	0.0493253482937328	0.0008608897324186045	8.468608947979138	0	0	0	0	0	0	-14.99999388872202	0	75.00017584612542	45.00000025534056	0	0	0	-14.99999388872202	0	75.00017584612542	45.00000025534056	0	0
6.139999999999914	-5.257340269723709	4.038508636404196	-46.78630773826202	0	0.9399999999999999	0	25.06465397726674	-7.87071603428581	-27.09178336099538	0.1632337793755977	0.002848966900578194	3.700953547522673	0	0	4.979258388278263	0.6509388574320375	-28.04618847915136	0.05042417623987655	0.0008800678979917398	8.462414509225068	0	0	0	0	0	0	-14.99999389077452	0	75.00017584612543	45.00000025534056	0	0	0	-14.99999389077452	0	75.00017584612543	45.00000025534056	0	0
6.149999999999913	-5.14498144441723	4.164907522095121	-46.7370262780453	0	0.9399999999999999	0	24.82738223105978	-8.143356650149784	-27.74491944702662	0.1504610558224141	0.00262604082012811	3.868197455695766	0	0	4.798369436961814	0.7217241193204441	-28.10116505719745	0.05064414149215372	0.0008839070158839563	8.492649445381725	0	0	0	0	0	0	-14.99999389425306	0	75.00017584612546	45.00000025534056	0	0	0	-14.99999389425306	0	75.00017584612546	45.00000025534056	0	0
6.159999999999913	-5.024615859746196	4.301910526783289	-46.66880473770233	0	0.9399999999999999	0	24.56500063187179	-8.426127789528167	-28.32086911369822	0.1369668242571479	0.002390522049287667	4.007119284820122	0	0	4.612049208297503	0.7997403264942489	-28.14987646952412	0.05178711250479003	0.0009038556233093137	8.506553812655381	0	0	0	0	0	0	-14.99999389689957	0	75.00017584612546	45.00000025534056	0	0	0	-14.99999389689957	0	75.00017584612546	45.00000025534056	0	0
6.169999999999913	-4.899171840997244	4.429924890483416	-46.57280227275739	0	0.9399999999999999	0	24.25903726625754	-8.698490641960012	-28.83400552061912	0.1280666132808666	0.00223518406362942	4.130066678591708	0	0	4.407026846818472	0.8767163033521633	-28.1892822833281	0.05272031973339741	0.000920143162051924	8.534835266864114	0	0	0	0	0	0	-14.99999389927434	0	75.00017584612547	45.00000025534056	0	0	0	-14.99999389927434	0	75.00017584612547	45.00000025534056	0	0
6.179999999999913	-4.767445521522019	4.55908718242157	-46.46620528439247	0	0.9399999999999999	0	23.89842282218631	-8.968371913619471	-29.27254039893865	0.1237479274024837	0.002159808775692255	4.21084521221889	0	0	4.190307511032988	0.9567045287493287	-28.21632717297008	0.05384906092169287	0.0009398434121905528	8.560218309019751	0	0	0	0	0	0	-14.99999390144452	0	75.0001758461255	45.00000025534056	0	0	0	-14.99999390144452	0	75.0001758461255	45.00000025534056	0	0
6.189999999999912	-4.640750914600589	4.686655119652764	-46.34597702069752	0	0.9399999999999999	0	23.51808757007001	-9.200471192669845	-29.64527027698125	0.121463070703549	0.002119930503359595	4.251391390119817	0	0	3.960963346456632	1.026962426877241	-28.22017325734575	0.05526614425539744	0.0009645761821388352	8.577002064633355	0	0	0	0	0	0	-14.99999390279493	0	75.0001758461255	45.00000025534056	0	0	0	-14.99999390279493	0	75.0001758461255	45.00000025534056	0	0
6.199999999999912	-4.514101658354067	4.816582791356558	-46.22286426260144	0	0.9399999999999999	0	23.11700371633126	-9.422864064360448	-29.92357806649686	0.1206899237268573	0.002106436543014486	4.229338815271202	0	0	3.723153560031955	1.081977490314648	-28.2035094194284	0.05722241316360906	0.0009987195156415227	8.577030093250343	0	0	0	0	0	0	-14.99999390293823	0	75.00017584612549	45.00000025534056	0	0	0	-14.99999390293823	0	75.00017584612549	45.00000025534056	0	0
6.209999999999912	-4.383272651180258	4.937665199031993	-46.08964273943872	0	0.9399999999999999	0	22.68879065389039	-9.61700324639966	-30.12344906467365	0.1227537620111478	0.002142457316304066	4.153882575786624	0	0	3.456932217429246	1.128090181646967	-28.15959911654721	0.05952060033245012	0.001038830448564886	8.56468009381039	0	0	0	0	0	0	-14.99999390334474	0	75.00017584612547	45.00000025534056	0	0	0	-14.99999390334474	0	75.00017584612547	45.00000025534056	0	0
6.219999999999912	-4.2528318494804	5.063539749972822	-45.95546123321124	0	0.9399999999999999	0	22.24111277472864	-9.789223234215573	-30.24398247609835	0.1282687830973854	0.002238712592575825	4.028611466068886	0	0	3.189023594453153	1.178140955550371	-28.11475614619887	0.06188008182395113	0.001080011169231445	8.52349598472871	0	0	0	0	0	0	-14.99999390424901	0	75.00017584612549	45.00000025534056	0	0	0	-14.99999390424901	0	75.00017584612549	45.00000025534056	0	0
6.229999999999912	-4.11742989884234	5.180069348495026	-45.82695018568328	0	0.9399999999999999	0	21.78899955520108	-9.867208504817032	-30.30594747481448	0.133969773014316	0.002338213637249263	3.948546773866914	0	0	2.909724454935869	1.220866044454412	-28.0795166357542	0.06482739336912338	0.001131451459776743	8.447704313218214	0	0	0	0	0	0	-14.99999390550179	0	75.0001758461255	45.00000025534056	0	0	0	-14.99999390550179	0	75.0001758461255	45.00000025534056	0	0
6.239999999999911	-3.983243893279784	5.298725432745008	-45.70482913631119	0	0.9399999999999999	0	21.49203601443618	-9.601946592126328	-30.38631279967025	0.1320374877378173	0.002304488897086551	4.072011568432792	0	0	2.617458564878589	1.251803270812033	-28.04406517700425	0.06854199782990231	0.001196283538026604	8.327995773140563	0	0	0	0	0	0	-14.99999390690512	0	75.0001758461255	45.00000025534056	0	0	0	-14.99999390690512	0	75.0001758461255	45.00000025534056	0	0
6.249999999999911	-3.847019553978844	5.402681364546638	-45.60305767041672	0	0.9399999999999999	0	21.0657581037786	-9.563216897539672	-30.44149990820376	0.126739469356783	0.002212021032506323	3.730090988569319	0	0	2.329621400511876	1.284590528115809	-28.03843474687491	0.07277664056822561	0.001270191996456014	8.181988845719429	0	0	0	0	0	0	-14.99999390573534	0	75.00017584612549	45.00000025534056	0	0	0	-14.99999390573534	0	75.00017584612549	45.00000025534056	0	0
6.259999999999911	-3.724765637931589	5.49369243511159	-45.51592636550119	0	0.9399999999999999	0	20.80891643222327	-9.723080653376909	-30.58386633081866	0.105765610143847	0.001845958132390844	2.610637737542296	0	0	2.013979878586503	1.275532961252351	-28.00263444327626	0.07866747233455522	0.001373006406459539	8.044379424013114	0	0	0	0	0	0	-14.999993909795	0	75.00017584612554	45.00000025534056	0	0	0	-14.999993909795	0	75.00017584612554	45.00000025534056	0	0
6.269999999999911	-3.61967519594931	5.586393113929732	-45.44435410702246	0	0.9399999999999999	0	20.71719832237662	-9.767046782518085	-30.72142478100401	0.08682330996494708	0.001515352626367929	1.647241543094539	0	0	1.714468974161803	1.262340988142159	-27.99984460729908	0.0853759692659007	0.001490091765771453	7.86308940895849	0	0	0	0	0	0	-14.9999939158303	0	75.0001758461256	45.00000025534056	0	0	0	-14.9999939158303	0	75.0001758461256	45.00000025534056	0	0
6.279999999999911	-3.506239511510469	5.668089956838671	-45.37663992876566	0	0.9399999999999999	0	20.38292022621741	-9.760168987028452	-30.62610707144439	0.08243087565340464	0.001438690185453943	1.068060158427597	0	0	1.413629549590416	1.226091216333782	-28.05562108171827	0.09460701381915139	0.001651203886623967	7.604394972578382	0	0	0	0	0	0	-14.99999391636245	0	75.00017584612559	45.00000025534056	0	0	0	-14.99999391636245	0	75.00017584612559	45.00000025534056	0	0
6.28999999999991	-3.402635889387359	5.729893086978615	-45.33802700709847	0	0.9399999999999999	0	19.84370393648684	-9.587300686382871	-30.43350039074354	0.08598763636288846	0.001500767370540005	0.5642917862767662	0	0	1.115651589436753	1.147754098845015	-28.18417794710547	0.1082306915073059	0.001888981918512753	7.337213351961732	0	0	0	0	0	0	-14.99999391758281	0	75.00017584612559	45.00000025534056	0	0	0	-14.99999391758281	0	75.00017584612559	45.00000025534056	0	0
6.29999999999991	-3.316987447396159	5.776623230805835	-45.30737401993835	0	0.9399999999999999	0	19.4034092601688	-9.342218621836604	-30.20579376277187	0.09022486174457914	0.001574720904599581	-0.06540203379870151	0	0	0.7850900173877526	1.037289612499851	-28.32831487211937	0.1330254230456319	0.002321731621004619	7.129086307428758	0	0	0	0	0	0	-14.99999391849598	0	75.0001758461256	45.00000025534056	0	0	0	-14.99999391849598	0	75.0001758461256	45.00000025534056	0	0
6.30999999999991	-3.244829717447711	5.808976105568159	-45.30988574088642	0	0.9399999999999999	0	19.11650379002824	-9.180722905724362	-29.89489568869421	0.0917983118624877	0.001602182789772979	-0.8706402924978566	0	0	0.4586975070550054	0.8732458386790812	-28.52527853149824	0.1791372679286165	0.003126535138381599	6.871925450294692	0	0	0	0	0	0	-14.99999392156518	0	75.00017584612563	45.00000025534056	0	0	0	-14.99999392156518	0	75.00017584612563	45.00000025534056	0	0
6.31999999999991	-3.17276422600718	5.847004891905856	-45.31522030130764	0	0.9399999999999999	0	18.88773545515581	-9.115692002296486	-29.52638181062467	0.09375934642480556	0.001636409299630831	-1.691745306725182	0	0	0.1650812427234356	0.6662925308923906	-28.72380398808721	0.286362374943688	0.004997966296597866	6.648891184482165	0	0	0	0	0	0	-14.99999392589334	0	75.00017584612567	45.00000025534056	0	0	0	-14.99999392589334	0	75.00017584612567	45.00000025534056	0	0
